<svg width="48" height="48" fill="none" xmlns="http://www.w3.org/2000/svg"><path d="M24 0c-3.483.07-4.191 4.837-.938 5.946v8.492c.046 1.242 1.83 1.241 1.875 0V5.945C28.192 4.836 27.479.07 23.999 0zm0 4.219a1.173 1.173 0 01-1.172-1.172c.058-1.553 2.285-1.552 2.343 0 0 .646-.525 1.172-1.172 1.172zm-6.797.501c-3.483.07-4.191 4.837-.938 5.946v4.803c.046 1.243 1.83 1.242 1.875 0v-4.803c3.256-1.11 2.543-5.876-.937-5.946zm0 4.219a1.173 1.173 0 01-1.172-1.172c.059-1.553 2.285-1.552 2.344 0 0 .646-.526 1.172-1.172 1.172zm12.656 1.727v4.803c.046 1.243 1.83 1.242 1.875 0v-4.803c3.254-1.11 2.543-5.876-.938-5.946-3.481.07-4.191 4.837-.937 5.946zm.937-4.071c.646 0 1.172.526 1.172 1.172-.059 1.552-2.285 1.552-2.344 0 0-.646.526-1.172 1.172-1.172zM15.469 31.734c1.243-.046 1.242-1.829 0-1.875h-4.803c-1.11-3.254-5.876-2.543-5.946.938.07 3.481 4.837 4.191 5.946.937h4.803zm-7.702.235a1.173 1.173 0 01-1.172-1.172c.059-1.553 2.285-1.552 2.344 0 0 .646-.526 1.172-1.172 1.172zm-1.821-7.032h8.492c1.242-.046 1.241-1.829 0-1.875H5.945C4.836 19.808.07 20.52 0 24c.07 3.481 4.837 4.192 5.946.937zm-2.9.235A1.173 1.173 0 011.876 24c.059-1.553 2.285-1.552 2.344 0 0 .646-.526 1.172-1.172 1.172zm4.721-4.922a3.052 3.052 0 002.9-2.11h4.802c1.243-.046 1.242-1.829 0-1.874h-4.803c-1.11-3.255-5.876-2.543-5.946.937a3.05 3.05 0 003.047 3.047zm0-4.219c.646 0 1.172.526 1.172 1.172-.06 1.553-2.285 1.552-2.344 0 0-.646.526-1.172 1.172-1.172zm17.17 26.023v-8.491c-.046-1.243-1.83-1.242-1.875 0v8.491C19.807 43.164 20.519 47.93 24 48c3.48-.07 4.191-4.836.937-5.946zM24 46.125a1.173 1.173 0 01-1.172-1.172c.059-1.552 2.285-1.552 2.343 0 0 .646-.525 1.172-1.171 1.172zm7.734-8.791v-4.803c-.046-1.242-1.83-1.241-1.875 0v4.803c-3.255 1.11-2.543 5.876.937 5.946 3.482-.07 4.192-4.836.938-5.946zm-.938 4.071a1.173 1.173 0 01-1.171-1.172c.058-1.552 2.285-1.552 2.343 0 0 .647-.526 1.172-1.172 1.172zM18.14 37.334v-4.803c-.046-1.242-1.83-1.241-1.875 0v4.803c-3.255 1.11-2.543 5.876.938 5.946 3.48-.07 4.191-4.836.937-5.946zm-.937 4.071a1.173 1.173 0 01-1.172-1.172c.059-1.552 2.285-1.552 2.344 0 0 .647-.526 1.172-1.172 1.172zm15.328-25.14c-1.242.047-1.241 1.83 0 1.875h4.803c1.11 3.255 5.876 2.544 5.946-.937-.07-3.481-4.836-4.191-5.946-.938h-4.803zm7.703-.234c.646 0 1.171.526 1.171 1.172-.059 1.553-2.285 1.552-2.343 0 0-.646.525-1.172 1.172-1.172zm4.719 4.922a3.052 3.052 0 00-2.899 2.11h-8.491c-1.243.046-1.242 1.829 0 1.875h8.491C43.164 28.192 47.93 27.48 48 24a3.05 3.05 0 00-3.047-3.047zm0 4.219A1.173 1.173 0 0143.781 24c.06-1.552 2.285-1.552 2.344 0 0 .646-.525 1.172-1.172 1.172zm-4.72 2.578a3.052 3.052 0 00-2.899 2.11h-4.803c-1.242.046-1.241 1.829 0 1.874h4.803c1.11 3.255 5.876 2.543 5.946-.937a3.05 3.05 0 00-3.047-3.047zm0 4.219a1.173 1.173 0 01-1.171-1.172c.058-1.553 2.285-1.552 2.343 0 0 .646-.525 1.172-1.172 1.172z" fill="#001042"/><path fill-rule="evenodd" clip-rule="evenodd" d="M17.203 13.453h13.594l3.75 3.75v13.594l-3.75 3.75H17.203l-3.75-3.75V17.203l3.75-3.75z" fill="url(#paint0_linear_1_16787)"/><path d="M22.646 27.281a.937.937 0 01-.811-1.406l2.707-4.688c.66-1.053 2.205-.16 1.624.938l-2.707 4.687a.937.937 0 01-.813.47zm-3.097 0a.934.934 0 01-.663-.274l-2.344-2.344a.943.943 0 010-1.326l2.344-2.344a.938.938 0 011.326 1.326L18.53 24l1.68 1.682c.593.583.158 1.61-.662 1.6zm8.906 0a.938.938 0 01-.663-1.6L29.473 24l-1.68-1.681a.938.938 0 011.325-1.326l2.344 2.344a.943.943 0 010 1.326l-2.344 2.343a.935.935 0 01-.663.275z" fill="#fff"/><defs><linearGradient id="paint0_linear_1_16787" x1="13.453" y1="14.997" x2="35.801" y2="17.131" gradientUnits="userSpaceOnUse"><stop stop-color="#0082F8"/><stop offset="1" stop-color="#00C0FD"/></linearGradient></defs></svg>