<svg width="37" height="48" fill="none" xmlns="http://www.w3.org/2000/svg"><path d="M18.365 41.405c5.721 0 10.359-4.638 10.359-10.359s-4.638-10.359-10.359-10.359S8.006 25.325 8.006 31.046s4.638 10.359 10.359 10.359z" fill="url(#paint0_linear_1_16809)"/><path d="M18.315 37.636c.518 0 .938-.42.938-.937v-.852c1.226-.376 2.01-1.453 2.19-2.516.24-1.43-.536-2.723-1.93-3.216-.744-.262-1.565-.579-2.02-.935-.262-.207-.145-1.012.439-1.213.411-.12.982-.178 1.393.205l.007.006a.934.934 0 001.321-.052.94.94 0 00-.05-1.327 2.928 2.928 0 00-1.35-.717v-.69a.938.938 0 00-1.875 0v.784l-.02.006c-.95.312-1.651 1.137-1.83 2.153-.16.914.15 1.803.809 2.32.666.522 1.62.9 2.55 1.228.737.26.759.825.706 1.138-.088.522-.527 1.086-1.284 1.091-.789.006-1.015-.03-1.611-.42a.938.938 0 00-1.027 1.569c.649.424 1.134.609 1.707.683v.755c0 .518.42.937.937.937z" fill="#fff"/><path d="M27.312 14.279a.937.937 0 10-1.124 1.5c5.346 4.007 8.668 10.58 8.668 17.152 0 9.522-6.929 13.194-16.49 13.194-9.56 0-16.491-3.67-16.491-13.194 0-6.574 3.322-13.146 8.668-17.152a.938.938 0 00-1.124-1.5C3.61 18.632 0 25.779 0 32.93 0 43.482 7.65 48 18.365 48c10.722 0 18.366-4.522 18.366-15.069 0-7.152-3.61-14.299-9.42-18.652zM11.316 11.37a.938.938 0 101.76-.648L9.962 2.269c.77.467 1.576 1.327 3.457 1.327 1.53 0 2.35-.57 3.009-1.028.577-.402.995-.693 1.937-.693.943 0 1.36.29 1.938.693.658.458 1.478 1.028 3.009 1.028 1.878 0 2.681-.856 3.456-1.327l-3.118 8.466a.938.938 0 001.048 1.234l10.319-1.834a.938.938 0 00-.328-1.846l-6.977 1.24 5.871-5.098a.938.938 0 00-1.229-1.416l-5.678 4.93 2.462-6.684A.938.938 0 0028.258 0c-1.53 0-2.35.57-3.009 1.029-.578.402-.995.692-1.937.692-.943 0-1.36-.29-1.938-.692C20.715.57 19.896 0 18.365 0c-1.53 0-2.35.57-3.009 1.029-.577.402-.995.692-1.937.692-.943 0-1.36-.29-1.938-.692C10.823.57 10.003 0 8.473 0a.938.938 0 00-.88 1.262l3.723 10.108z" fill="#001042"/><path d="M9.402 15.967a2.933 2.933 0 01-2.93-2.93 2.933 2.933 0 012.93-2.929H26.83a2.933 2.933 0 012.93 2.93 2.933 2.933 0 01-2.93 2.929H9.402z" fill="url(#paint1_linear_1_16809)"/><defs><linearGradient id="paint0_linear_1_16809" x1="8.006" y1="22.203" x2="29.956" y2="24.299" gradientUnits="userSpaceOnUse"><stop stop-color="#0082F8"/><stop offset="1" stop-color="#00C0FD"/></linearGradient><linearGradient id="paint1_linear_1_16809" x1="6.473" y1="10.537" x2="28.235" y2="18.795" gradientUnits="userSpaceOnUse"><stop stop-color="#0082F8"/><stop offset="1" stop-color="#00C0FD"/></linearGradient></defs></svg>