<svg width="62" height="55" fill="none" xmlns="http://www.w3.org/2000/svg"><path d="M42.363 12.254V3.325A3.33 3.33 0 0039.037 0H3.326A3.33 3.33 0 000 3.326v8.927c0 1.451.934 2.688 2.232 3.141v2.646A3.332 3.332 0 000 21.181v8.928c0 1.45.934 2.688 2.232 3.141v2.646A3.331 3.331 0 000 39.036v8.929a3.33 3.33 0 003.326 3.325h26.388c1.445-.05 1.45-2.136 0-2.187H3.326a1.14 1.14 0 01-1.139-1.138v-8.928a1.14 1.14 0 011.139-1.138h35.71c.628 0 1.14.51 1.14 1.138v3.523a1.094 1.094 0 002.187 0v-3.523c0-1.45-.934-2.688-2.232-3.141V33.25a3.332 3.332 0 002.232-3.14v-8.93c0-1.45-.934-2.687-2.232-3.14v-2.647a3.331 3.331 0 002.232-3.14zM2.188 3.325c0-.628.51-1.139 1.138-1.139h35.711a1.14 1.14 0 011.138 1.139v8.927a1.14 1.14 0 01-1.138 1.139H3.326a1.14 1.14 0 01-1.138-1.139V3.326zm2.232 14.53v-2.277h33.523v2.277H4.42zm33.523 15.579v2.276H4.42v-2.276h33.523zm2.232-3.326a1.14 1.14 0 01-1.138 1.138H3.326a1.14 1.14 0 01-1.138-1.138V21.18c0-.627.51-1.138 1.138-1.138h35.711c.628 0 1.138.51 1.138 1.138v8.928z" fill="#001042"/><path d="M5.558 11.115h31.247c1.44-.049 1.458-2.13 0-2.187H5.558c-1.44.049-1.458 2.13 0 2.187zm.001-4.464c.604 0 1.093-.49 1.093-1.093-.053-1.45-2.134-1.45-2.188 0 0 .604.49 1.093 1.095 1.093zm5.021 0c.604 0 1.094-.49 1.094-1.093-.053-1.45-2.135-1.45-2.188 0 0 .604.49 1.093 1.094 1.093zm5.022 0c.604 0 1.094-.49 1.094-1.093-.054-1.45-2.135-1.45-2.188 0 0 .604.49 1.093 1.094 1.093zm21.203 20.132H5.558c-1.44.05-1.458 2.131 0 2.188h31.247c1.44-.05 1.458-2.13 0-2.188zM5.559 24.507c.604 0 1.093-.49 1.093-1.094-.053-1.45-2.134-1.449-2.188 0 0 .604.49 1.094 1.095 1.094zm5.021 0c.604 0 1.094-.49 1.094-1.094-.053-1.45-2.135-1.449-2.188 0 0 .604.49 1.094 1.094 1.094zm5.022 0c.604 0 1.094-.49 1.094-1.094-.054-1.45-2.135-1.449-2.188 0 0 .604.49 1.094 1.094 1.094zm17.025 20.132H5.557a1.094 1.094 0 000 2.187h27.07c1.441-.05 1.456-2.131 0-2.187zM5.559 42.362c.604 0 1.093-.49 1.093-1.093-.053-1.45-2.134-1.45-2.188 0 0 .604.49 1.093 1.095 1.093zm6.115-1.093c0-.605-.49-1.094-1.095-1.094-1.449.054-1.447 2.134.001 2.188.604 0 1.094-.49 1.094-1.094zm5.022 0c0-.605-.49-1.094-1.095-1.094-1.449.054-1.448 2.134.001 2.188.604 0 1.094-.49 1.094-1.094z" fill="#001042"/><path fill-rule="evenodd" clip-rule="evenodd" d="M26.305 55H56.66c2.937 0 5.34-2.336 5.34-5.19 0-2.855-2.403-5.191-5.34-5.191.077-4.21-4.384-7.363-8.476-6.047-6.926-8.393-21.189-4.574-22.701 6.109-6.43 1.146-5.755 10.132.822 10.319z" fill="url(#paint0_linear_1_616)"/><defs><linearGradient id="paint0_linear_1_616" x1="21" y1="35.537" x2="63.362" y2="43.433" gradientUnits="userSpaceOnUse"><stop stop-color="#0082F8"/><stop offset="1" stop-color="#1C40F2"/></linearGradient></defs></svg>