<svg width="52" height="56" fill="none" xmlns="http://www.w3.org/2000/svg"><path d="M1.094 48.344h35v6.563h-35v-6.563z" fill="url(#paint0_linear_1_98)"/><path d="M39.375 38.5V25.375L50.312 21v13.125L39.375 38.5z" fill="url(#paint1_linear_1_98)"/><path d="M50.761 20.003c-.065-.029-9.069-3.629-10.98-4.393a1.093 1.093 0 00-.812 0l-1.782.712c0-1.722.002-7.516-.001-7.609a1.095 1.095 0 00-.319-.736L29.211.32a1.103 1.103 0 00-.773-.32H1.093C.49 0 0 .49 0 1.094v53.812C0 55.51.49 56 1.094 56h35c.604 0 1.093-.49 1.093-1.094V38.803l1.782.713c.26.104.551.104.812 0L50.72 35.14c.415-.167.687-.569.687-1.016V21.022c0-.471-.262-.846-.645-1.018zm-11.386-2.2L47.367 21l-7.992 3.197L31.383 21l7.992-3.197zM33.453 7.656h-3.922V3.734l3.922 3.922zM35 53.813H2.187V2.187h25.157V8.75c0 .604.49 1.094 1.093 1.094H35v7.353c-7.423 2.97-6.986 2.791-7.07 2.835a1.09 1.09 0 00-.586.99v13.103c0 .447.272.85.687 1.016L35 37.928v15.885zm4.375-16.491l-9.844-3.938V22.616l9.438 3.774c.26.105.551.105.812 0l9.438-3.774v10.768l-9.844 3.938z" fill="#001042"/><path d="M12.351 8.195l-4.695 4.696-1.415-1.414a1.094 1.094 0 00-1.546 1.547l2.187 2.187c.427.427 1.12.427 1.547 0l5.469-5.469a1.094 1.094 0 00-1.547-1.547zm2.962 7.336h16.406a1.094 1.094 0 000-2.188H15.312a1.094 1.094 0 000 2.188zm-2.962 2.508l-4.695 4.695L6.24 21.32a1.094 1.094 0 00-1.546 1.547l2.187 2.188c.427.427 1.12.427 1.547 0l5.469-5.47a1.094 1.094 0 00-1.547-1.546zm2.962 7.336h8.75a1.094 1.094 0 000-2.188h-8.75a1.094 1.094 0 100 2.188zm-2.962 2.508l-4.695 4.695-1.415-1.414a1.094 1.094 0 00-1.546 1.547l2.187 2.187c.427.427 1.12.427 1.547 0l5.469-5.468a1.094 1.094 0 00-1.547-1.547zm2.962 7.335h8.75a1.094 1.094 0 000-2.187h-8.75a1.094 1.094 0 100 2.187zm-2.962 2.508l-4.695 4.696-1.415-1.414a1.094 1.094 0 00-1.546 1.547l2.187 2.187c.427.427 1.12.427 1.547 0l5.469-5.469a1.094 1.094 0 00-1.547-1.547zm1.868 6.242c0 .604.49 1.094 1.094 1.094h16.406a1.094 1.094 0 000-2.188H15.312c-.604 0-1.093.49-1.093 1.094z" fill="#001042"/><defs><linearGradient id="paint0_linear_1_98" x1="1.094" y1="48.824" x2="30.809" y2="63.955" gradientUnits="userSpaceOnUse"><stop stop-color="#0082F8"/><stop offset="1" stop-color="#1C40F2"/></linearGradient><linearGradient id="paint1_linear_1_98" x1="39.375" y1="22.28" x2="51.026" y2="22.976" gradientUnits="userSpaceOnUse"><stop stop-color="#0082F8"/><stop offset="1" stop-color="#1C40F2"/></linearGradient></defs></svg>