<svg width="57" height="56" fill="none" xmlns="http://www.w3.org/2000/svg"><path d="M17.512 26.933c1.151-1.484.851-3.609-.212-5.188-1.112-1.653-4.226-6.35-5.712-7.335-1.24-.823-3.076-.794-4.403.01-.228.138-.744.596-1.353 1.169l9.228 13.503c1.215-1.052 2.386-2.073 2.452-2.159z" fill="url(#paint0_linear_1_73)"/><path d="M41.596 48.83c.805-1.325.834-3.161.011-4.4-.986-1.487-5.532-4.462-7.335-5.713-1.564-1.086-3.706-1.365-5.19-.214-.084.065-1.062 1.186-2.09 2.372l13.407 9.34c.586-.622 1.056-1.152 1.197-1.385z" fill="url(#paint1_linear_1_73)"/><path d="M39.747 0c-9.082 0-16.471 7.389-16.471 16.47 0 9.083 7.389 16.471 16.47 16.471 9.083 0 16.471-7.388 16.471-16.47C56.217 7.389 48.83 0 39.747 0zm0 30.745c-7.872 0-14.275-6.403-14.275-14.274 0-7.871 6.403-14.275 14.275-14.275 7.87 0 14.274 6.404 14.274 14.275 0 7.87-6.403 14.274-14.274 14.274z" fill="#001042"/><path d="M39.745 4.392c-.606 0-1.098.491-1.098 1.098v1.098a1.098 1.098 0 002.196 0V5.49c0-.607-.491-1.098-1.098-1.098zM32.758 7.93a1.098 1.098 0 00-1.553 1.552l.777.777a1.098 1.098 0 001.553-1.553l-.777-.777zm-2.894 7.442h-1.098a1.098 1.098 0 100 2.196h1.098a1.098 1.098 0 000-2.196zm2.118 7.31l-.777.777a1.098 1.098 0 001.553 1.553l.777-.777a1.098 1.098 0 00-1.553-1.553zm7.763 2.573c-.606 0-1.098.491-1.098 1.098v1.098a1.098 1.098 0 102.196 0v-1.098c0-.607-.491-1.098-1.098-1.098zm7.765-2.573a1.098 1.098 0 00-1.552 1.553l.776.777a1.098 1.098 0 001.553-1.553l-.776-.777zm3.217-7.31H49.63a1.098 1.098 0 000 2.196h1.098a1.098 1.098 0 000-2.196zm-3.216-5.113l.776-.777a1.098 1.098 0 00-1.553-1.553l-.776.777a1.098 1.098 0 001.553 1.553zm-7.765-.377c-.606 0-1.098.492-1.098 1.098v4.393h-3.294a1.098 1.098 0 000 2.196h4.392c.606 0 1.098-.492 1.098-1.098v-5.49c0-.607-.492-1.099-1.098-1.099zm-4.847 27.931c-1.97-1.368-4.624-1.626-6.49-.179-.102.08-.256.2-4.24 4.83-3.92-1.327-9.29-6.696-10.618-10.618 4.631-3.984 4.75-4.138 4.83-4.24 1.342-1.73 1.274-4.332-.168-6.475-1.19-1.729-4.26-6.472-6.017-7.637-1.626-1.079-3.922-1.018-5.58-.014-.693.422-4.965 4.473-5.514 5.551-2.382 4.711-.463 13.373 1.617 18.23 2.605 6.088 9.948 13.43 16.034 16.034C21.895 54.642 27.027 56 31.412 56c2.272 0 4.147-.366 5.568-1.084 1.047-.524 5.117-4.791 5.555-5.516 1.039-1.709 1.034-4.003-.012-5.579-1.13-1.703-5.554-4.572-7.624-6.008zm5.76 10.446c-.383.603-4.204 4.464-4.666 4.695-3.959 2.003-12.285.076-16.375-1.677-5.551-2.375-12.504-9.328-14.88-14.88-1.896-4.426-3.67-12.433-1.678-16.372.265-.52 4.153-4.322 4.695-4.667.99-.6 2.368-.604 3.227-.034 1.293.857 4.546 5.75 5.409 7.033.748 1.112 1.121 2.725.291 3.855-.425.4-3.315 2.897-5.096 4.426-.31.267-.446.684-.354 1.083 1.156 4.95 8.114 11.908 13.063 13.062.398.093.815-.044 1.082-.354 1.53-1.78 4.027-4.671 4.427-5.096 1.097-.807 2.71-.502 3.843.284 1.306.908 6.192 4.13 7.046 5.418.573.863.558 2.25-.035 3.224z" fill="#001042"/><defs><linearGradient id="paint0_linear_1_73" x1="5.832" y1="14.923" x2="19.026" y2="15.946" gradientUnits="userSpaceOnUse"><stop stop-color="#0082F8"/><stop offset="1" stop-color="#1C40F2"/></linearGradient><linearGradient id="paint1_linear_1_73" x1="26.993" y1="38.672" x2="43.045" y2="40.545" gradientUnits="userSpaceOnUse"><stop stop-color="#0082F8"/><stop offset="1" stop-color="#1C40F2"/></linearGradient></defs></svg>