<svg width="57" height="48" fill="none" xmlns="http://www.w3.org/2000/svg"><path d="M38.213 29.649a16.745 16.745 0 001.427-6.784c0-9.276-7.538-16.823-16.802-16.823-9.265 0-16.803 7.547-16.803 16.823 0 9.277 7.538 16.823 16.803 16.823 5.06 0 9.606-2.252 12.69-5.807a9.976 9.976 0 012.685-4.232z" fill="url(#paint0_linear_1_385)"/><path d="M22.838 22.53a5.292 5.292 0 005.286-5.288 5.292 5.292 0 00-5.286-5.287 5.292 5.292 0 00-5.286 5.287 5.292 5.292 0 005.286 5.287zm0-8.385a3.1 3.1 0 013.096 3.097 3.1 3.1 0 01-3.096 3.098 3.1 3.1 0 01-3.096-3.098 3.1 3.1 0 013.096-3.097zm-.001 10.183c-4.474 0-8.115 3.64-8.115 8.114v.238c0 .605.49 1.095 1.095 1.095h14.04c.604 0 1.094-.49 1.094-1.095v-.238c0-4.474-3.64-8.114-8.114-8.114zm-5.863 7.257a5.934 5.934 0 015.863-5.067 5.934 5.934 0 015.863 5.067H16.974z" fill="#fff"/><path d="M45.479 25.884c.131-.998.197-2.009.197-3.019C45.676 10.257 35.431 0 22.838 0 10.245 0 0 10.257 0 22.865 0 35.473 10.245 45.73 22.838 45.73c4.437 0 8.695-1.259 12.386-3.651 1.852 3.518 5.54 5.921 9.78 5.921 6.09 0 11.045-4.963 11.045-11.063 0-5.941-4.7-10.803-10.57-11.053zM22.839 43.54c-11.387 0-20.65-9.275-20.65-20.676 0-11.4 9.263-20.676 20.65-20.676 11.385 0 20.648 9.275 20.648 20.676 0 1.055-.08 2.111-.238 3.148-5.26.844-9.292 5.421-9.292 10.924 0 1.064.15 2.094.432 3.069a20.479 20.479 0 01-11.55 3.535zm22.164 2.27c-4.884 0-8.857-3.981-8.857-8.874 0-4.893 3.973-8.874 8.857-8.874 4.884 0 8.857 3.98 8.857 8.874 0 4.893-3.973 8.874-8.857 8.874z" fill="#020288"/><path d="M47.273 35.842h-1.176v-1.176a1.095 1.095 0 00-2.19 0v1.176h-1.175a1.095 1.095 0 000 2.19h1.176v1.175a1.095 1.095 0 002.19 0v-1.176h1.175a1.095 1.095 0 000-2.19z" fill="#020288"/><defs><linearGradient id="paint0_linear_1_385" x1="6.035" y1="8.504" x2="41.639" y2="11.899" gradientUnits="userSpaceOnUse"><stop stop-color="#0082F8"/><stop offset="1" stop-color="#00C0FD"/></linearGradient></defs></svg>