<svg width="532" height="385" fill="none" xmlns="http://www.w3.org/2000/svg"><path d="M393.019 56.316L238.87 145.387l-46.059-80.116L305.562.03 393.019 0v56.316z" fill="url(#paint0_linear_1_526)"/><path d="M239.432 88.937L196.51 64.161a1.481 1.481 0 00-1.554-.133l-1.599.932.77 1.347v48.369c.02.892.245 1.767.659 2.557a5.79 5.79 0 001.724 2.001l42.034 24.229.903 1.584 1.583-.918a2.1 2.1 0 00.829-1.939V93.496a5.754 5.754 0 00-2.427-4.559z" fill="#1C40F2"/><path d="M237.569 145.046l-42.922-24.776a5.716 5.716 0 01-2.383-4.559v-48.65c0-1.76 1.065-2.56 2.383-1.805l42.922 24.776a5.748 5.748 0 012.456 4.559v48.723c-.103 1.732-1.139 2.576-2.456 1.732z" fill="#fff"/><path d="M435.246 330.484l-71.043-48.561 25.768-102.717c2.353-9.443 13.173-13.587 22.408-8.407l50.618 28.344c7.09 3.922 10.79 11.988 7.268 28.121l-24.94 99.386a6.528 6.528 0 01-2.952 4.067 6.543 6.543 0 01-4.966.773 6.374 6.374 0 01-2.161-1.006z" fill="#00113A"/><path d="M300.383 317.992c-2.738-14.061-4.174-30.712.621-44.402 3.967-11.382 12.803-15.585 23.681-19.863a152.699 152.699 0 0120.026-6.305l6.867-1.613a11.728 11.728 0 012.368-.533c1.273 0 .8-.858-.592 1.066-.148.992-.266 1.983-.399 2.96l.873 1.48c-3.286-2.827 1.08-8.643 4.721-6.068 5.388 3.833 5.713 11.959 6.157 17.983.548 7.578.267 15.155.237 22.733a3.86 3.86 0 01-3.855 3.624 3.863 3.863 0 01-3.856-3.624c0-5.994.207-11.988 0-17.997a86.316 86.316 0 00-.784-9.769c-.208-1.346-.548-5.387-1.791-6.29l4.721-6.068c7.548 6.497-12.048 9.443-14.179 9.975a134.616 134.616 0 00-21.254 7.075c-5.387 2.368-10.656 4.44-13.557 9.813-4.44 8.111-4.322 18.575-3.893 27.529.222 5.414.83 10.806 1.821 16.133.947 4.869-6.498 6.941-7.4 2.057l-.533.104z" fill="#00113A"/><path d="M437.109 333.666l-79.02-51.803 25.768-102.716c2.353-9.443 13.202-13.587 22.408-8.407l50.648 28.343a17.661 17.661 0 018.969 19.241l-28.773 115.342z" fill="#00165B"/><path d="M440.262 333.532v-5.92l-8.229-.281-64.353-37.238a16.156 16.156 0 00-14.505.606l-55.429 31.955-5.165-.192v5.92a4.218 4.218 0 002.472 3.641l70.081 40.465a16.285 16.285 0 0014.504-.622l57.235-32.931a6.612 6.612 0 003.448-3.997 3.845 3.845 0 00-.059-1.406z" fill="#00165B"/><path d="M342.149 287.739c1.673 2.561 14.002-30.711 7.09-76.578l61.733 29.601c-1.716 29.853-2.812 37.401-10.478 74.003l-58.345-27.026z" fill="#1C40F2"/><path d="M374.147 371.496a135.945 135.945 0 01-2.368-22.704c-.326-11.382.355-24.703 7.089-34.338 4.367-6.26 11.486-9.191 17.998-12.714a184.937 184.937 0 0121.002-10.271c9.887-3.819 20.973-3.937 26.715 6.571 6.705 12.226.726 25.028.281 37.786-.192 5.462-8.673 5.477-8.48 0 .311-9.235 3.922-17.968 2.619-27.425-.621-4.366-2.53-9.443-7.222-10.746-3.612-.991-7.8.637-11.13 1.91a161.201 161.201 0 00-17.909 8.717c-5.565 2.96-13.01 5.58-16.814 10.938-5.713 8.037-5.92 19.67-5.668 29.098.107 6.98.78 13.939 2.013 20.81 1.036 5.358-7.09 7.622-8.17 2.368h.044z" fill="#00113A"/><path d="M0 385l231.47-158.269a16.51 16.51 0 017.325-2.07c2.57-.111 5.129.38 7.476 1.434L531.5 385H0z" fill="#FDFFFF"/><path d="M383.503 321.558L305.4 281.715a1.487 1.487 0 00-1.377 0l-22.438 13.247a1.346 1.346 0 00-.532 1.82c.117.229.303.416.532.533l73.663 42.522a1.358 1.358 0 001.347 0l25.679-14.652c.785-.518 2.131-3.109 1.229-3.627z" fill="url(#paint1_linear_1_526)"/><path d="M355.248 337.055l-73.663-42.522a1.48 1.48 0 01-.192-2.013c.141-.135.301-.25.473-.341l25.694-14.549a1.48 1.48 0 011.48 0l73.93 42.656a1.408 1.408 0 01-.311 2.353l-25.975 14.416a1.6 1.6 0 01-1.436 0z" fill="#fff"/><path d="M304.333 288.982a.59.59 0 01-.547 0l-4.959-2.856c-.192 0-.236-.237 0-.311l3.286-1.91a.716.716 0 01.548 0l4.973 2.857c.163.118.222.266 0 .326l-3.301 1.894z" fill="url(#paint2_linear_1_526)"/><path d="M310.002 297.493a.716.716 0 01-.547 0l-4.959-2.857c-.192-.118-.236-.252 0-.326l3.301-1.894c.172-.06.36-.06.533 0l4.973 2.886c.163 0 .222.237 0 .311l-3.301 1.88z" fill="url(#paint3_linear_1_526)"/><path d="M307.101 301.104a.59.59 0 01-.547 0l-4.988-2.856c-.163 0-.207-.237 0-.311l3.286-1.924a.713.713 0 01.547 0l4.959 2.856c.192.119.236.252 0 .326l-3.257 1.909z" fill="url(#paint4_linear_1_526)"/><path d="M299.227 301.785a.717.717 0 01-.547 0l-4.959-2.96a.18.18 0 01-.207-.104.166.166 0 01.009-.112.16.16 0 01.08-.08l3.286-1.924c.172-.06.36-.06.532 0l4.988 2.856c.163.119.208.267 0 .341l-3.182 1.983z" fill="url(#paint5_linear_1_526)"/><path d="M373.23 323.231a.758.758 0 01-.636-.148l-6.527-3.744c-.208-.119-.296-.282-.178-.356l3.848-2.249a.875.875 0 01.637.118l6.512 3.759c.237.134.34.311.222.371l-3.878 2.249z" fill="url(#paint6_linear_1_526)"/><path d="M312.785 283.625a.556.556 0 01-.488 0l-4.958-2.857c-.193 0-.267-.237-.148-.281l1.48-.829h.444l4.958 2.872c.163 0 .237.222.148.296l-1.436.799z" fill="url(#paint7_linear_1_526)"/><path d="M319.445 287.547a.644.644 0 01-.518 0l-4.899-2.886c-.193 0-.237-.237-.148-.281l1.48-.829a.637.637 0 01.518 0l4.958 2.856c.192 0 .237.237.148.282l-1.539.858z" fill="url(#paint8_linear_1_526)"/><path d="M326.49 291.572h-.504l-4.987-2.96c-.163 0-.222-.237-.134-.281l1.362-.799a.594.594 0 01.503 0l4.958 2.871c.193 0 .267.222.163.296l-1.361.873z" fill="url(#paint9_linear_1_526)"/><path d="M316.425 289.486a.737.737 0 01-.503 0l-4.973-3.049c-.178-.119-.237-.237-.148-.311l1.376-.784h.489l4.988 2.96c.162 0 .236.236.133.281l-1.362.903z" fill="url(#paint10_linear_1_526)"/><path d="M363.95 316.733a.867.867 0 01-.547 0l-32.34-18.663c-.177-.119-.237-.252 0-.326l3.878-2.22a.717.717 0 01.548 0l32.324 18.679c.163 0 .222.236 0 .31l-3.863 2.22z" fill="url(#paint11_linear_1_526)"/><path d="M358.651 313.774a.882.882 0 01-.547 0l-32.325-18.649c-.163 0-.237-.237-.118-.311l3.877-2.235a.662.662 0 01.533 0l32.34 18.649c.192 0 .236.237 0 .311l-3.76 2.235z" fill="url(#paint12_linear_1_526)"/><path d="M306.007 305.707a.717.717 0 01-.548 0l-4.958-2.96c-.178 0-.237-.237 0-.296l3.315-1.895a.679.679 0 01.533 0l4.973 2.886a.168.168 0 01.086.086.161.161 0 01.003.122.177.177 0 01-.089.088l-3.315 1.969z" fill="url(#paint13_linear_1_526)"/><path d="M312.859 309.674a.708.708 0 01-.547 0l-4.958-2.857c-.193-.118-.237-.266-.119-.325l3.286-1.895a.593.593 0 01.548 0l5.076 2.857c.163 0 .207.237 0 .311l-3.286 1.909z" fill="url(#paint14_linear_1_526)"/><path d="M319.712 313.625a.87.87 0 01-.548 0l-4.988-2.812a.166.166 0 01-.086-.085.166.166 0 01-.002-.122.12.12 0 01.033-.055.13.13 0 01.055-.034l3.286-1.924a.596.596 0 01.548 0l4.899 2.812a.168.168 0 01.125.009c.019.01.036.023.051.039a.17.17 0 01.031.056.162.162 0 01-.089.192l-3.315 1.924z" fill="url(#paint15_linear_1_526)"/><path d="M326.534 317.562a.59.59 0 01-.547 0l-4.958-2.856c-.193 0-.237-.237 0-.311l3.3-1.909a.597.597 0 01.274-.068c.095 0 .189.024.274.068l4.958 2.856c.192.119.237.267 0 .311l-3.301 1.909z" fill="url(#paint16_linear_1_526)"/><path d="M333.387 321.514a.596.596 0 01-.548 0l-4.958-2.871a.169.169 0 01-.108-.018.163.163 0 01-.011-.278l3.286-1.924c.173-.06.36-.06.533 0l4.988 2.871c.163 0 .207.252 0 .326l-3.182 1.894z" fill="url(#paint17_linear_1_526)"/><path d="M340.226 325.451a.662.662 0 01-.533 0l-4.943-2.886c-.163 0-.208-.237 0-.296l3.285-1.924a.87.87 0 01.548 0l4.958 2.856c.178.119.237.267 0 .341l-3.315 1.909z" fill="url(#paint18_linear_1_526)"/><path d="M355.633 334.361a.87.87 0 01-.548 0l-13.528-7.77c-.163 0-.222-.237 0-.311l3.286-1.895a.678.678 0 01.533 0l13.542 7.815a.19.19 0 01.083.096c.017.04.019.085.006.126a.139.139 0 01-.033.056.139.139 0 01-.056.033l-3.285 1.85z" fill="url(#paint19_linear_1_526)"/><path d="M313.896 305.027a.885.885 0 01-.548 0l-4.958-2.961a.154.154 0 01-.064.007.166.166 0 01-.06-.021.152.152 0 01-.069-.104.166.166 0 01-.031-.096c0-.035.011-.069.031-.096l3.316-1.88a.64.64 0 01.518 0l4.988 2.871c.162 0 .207.237 0 .311l-3.123 1.969z" fill="url(#paint20_linear_1_526)"/><path d="M320.866 308.993a.87.87 0 01-.548 0l-4.987-2.96c-.163 0-.208-.237 0-.311l3.285-1.88a.716.716 0 01.548 0l4.958 2.872a.177.177 0 01.207.118.163.163 0 01-.008.113.172.172 0 01-.08.08l-3.375 1.968z" fill="url(#paint21_linear_1_526)"/><path d="M327.571 312.93a.717.717 0 01-.548 0l-4.958-2.857c-.163-.118-.237-.251 0-.325l3.315-1.895a.565.565 0 01.533 0l4.958 2.857a.177.177 0 01.104.222.176.176 0 01-.042.056.176.176 0 01-.062.033l-3.3 1.909z" fill="url(#paint22_linear_1_526)"/><path d="M334.423 316.882a.59.59 0 01-.548 0l-4.958-2.857c-.192 0-.237-.237 0-.311l3.301-1.909a.493.493 0 01.533 0l4.958 2.857c.163.118.222.236 0 .296l-3.286 1.924z" fill="url(#paint23_linear_1_526)"/><path d="M341.275 320.819a.59.59 0 01-.547 0l-4.959-2.857c-.192-.118-.236-.237-.118-.311l3.286-1.909a.562.562 0 01.533 0l4.987 2.857c.163.118.208.266 0 .31l-3.182 1.91z" fill="url(#paint24_linear_1_526)"/><path d="M348.069 324.771a.532.532 0 01-.518 0l-4.988-2.96c-.163 0-.207-.237 0-.296l3.286-1.925a.882.882 0 01.547 0l4.959 2.872c.024 0 .049.005.071.015a.167.167 0 01.097.105.177.177 0 01.009.072.216.216 0 010 .133l-3.463 1.984z" fill="url(#paint25_linear_1_526)"/><path d="M354.952 328.707a.717.717 0 01-.547 0l-4.959-2.871c-.192 0-.237-.237 0-.311l3.301-1.894a.625.625 0 01.518 0l4.988 2.96a.193.193 0 010 .266l-3.301 1.85z" fill="url(#paint26_linear_1_526)"/><path d="M316.796 301.475a.496.496 0 01-.533 0l-4.958-2.857c-.178-.118-.237-.237 0-.311l3.271-1.909a.59.59 0 01.547 0l4.958 2.857c.193.118.237.237.119.311l-3.404 1.909z" fill="url(#paint27_linear_1_526)"/><path d="M323.648 305.322a.519.519 0 01-.547 0l-4.958-2.856c-.178 0-.237-.237 0-.296l3.315-1.924a.78.78 0 01.518 0l4.988 2.856a.195.195 0 01.089.222.18.18 0 01-.089.089l-3.316 1.909z" fill="url(#paint28_linear_1_526)"/><path d="M330.502 309.333a.698.698 0 01-.548 0l-4.973-2.871c-.177 0-.222-.237 0-.311l3.271-1.909a.717.717 0 01.548 0l4.958 2.856c.193.119.237.252 0 .326l-3.256 1.909z" fill="url(#paint29_linear_1_526)"/><path d="M337.398 313.315a.87.87 0 01-.548 0l-4.958-2.886c-.193 0-.237-.237 0-.311l3.315-1.879a.662.662 0 01.533 0l4.929 2.871a.178.178 0 01.103.222.192.192 0 01-.103.089l-3.271 1.894z" fill="url(#paint30_linear_1_526)"/><path d="M344.177 317.252a.716.716 0 01-.548 0l-4.958-2.872c-.192 0-.237-.237 0-.311l3.316-1.894a.658.658 0 01.532 0l4.959 2.96a.195.195 0 010 .267l-3.301 1.85z" fill="url(#paint31_linear_1_526)"/><path d="M351.03 321.173a.698.698 0 01-.547 0l-4.988-2.856c-.163 0-.207-.252 0-.326l3.285-1.894a.87.87 0 01.548 0l4.988 2.96c.163 0 .207.237 0 .311l-3.286 1.805z" fill="url(#paint32_linear_1_526)"/><path d="M357.852 325.17a.532.532 0 01-.518 0l-4.988-2.856c-.163-.119-.207-.237 0-.311l3.286-1.91a.593.593 0 01.548 0l4.958 2.857a.178.178 0 01.089.207.197.197 0 01-.089.104l-3.286 1.909z" fill="url(#paint33_linear_1_526)"/><path d="M303.15 293.526a.87.87 0 01-.548 0l-8.407-4.736a.137.137 0 01-.06.008.154.154 0 01-.059-.017.136.136 0 01-.046-.04.145.145 0 01-.027-.054.148.148 0 01-.035-.097c0-.035.012-.069.035-.096l3.286-1.924a.59.59 0 01.547 0l8.422 4.869c.021-.006.044-.008.066-.006a.155.155 0 01.113.065.15.15 0 01.028.06.158.158 0 01-.009.113.158.158 0 01-.08.079l-3.226 1.776z" fill="url(#paint34_linear_1_526)"/><path d="M369.235 326.591a.596.596 0 01-.548 0l-8.407-4.736c-.192-.118-.236-.252-.118-.326l3.212-2.027a.695.695 0 01.547 0l8.437 4.869c.163.118.237.252 0 .326l-3.123 1.894z" fill="url(#paint35_linear_1_526)"/><path d="M300.248 297.152a.511.511 0 01-.548 0l-10.035-5.787c-.192 0-.237-.236 0-.296l3.286-1.924a.562.562 0 01.533 0l10.064 5.787c.163 0 .222.237 0 .311l-3.3 1.909z" fill="url(#paint36_linear_1_526)"/><path d="M292.36 297.848a.59.59 0 01-.547 0l-6.69-3.863c-.178-.118-.222-.252-.104-.326l3.271-1.894a.596.596 0 01.548 0l6.704 3.863c.163.118.237.251.119.296l-3.301 1.924z" fill="url(#paint37_linear_1_526)"/><path d="M311.067 292.934a.812.812 0 01-.533 0l-4.973-2.841c-.163 0-.222-.237 0-.311l3.286-1.91a.678.678 0 01.533 0l4.958 2.857c.192.118.237.266 0 .326l-3.271 1.879z" fill="url(#paint38_linear_1_526)"/><path d="M317.892 296.872a.716.716 0 01-.548 0l-4.958-2.961c-.192 0-.237-.236 0-.296l3.286-1.894a.713.713 0 01.547 0l4.973 2.886c.163 0 .222.237 0 .296l-3.3 1.969z" fill="url(#paint39_linear_1_526)"/><path d="M324.715 300.823a.78.78 0 01-.518 0l-4.988-2.857c-.163-.118-.207-.266 0-.34l3.285-1.88a.521.521 0 01.548 0l4.958 2.857c.021.006.04.017.056.031a.176.176 0 01.037.052c.008.02.012.041.011.062a.132.132 0 01-.015.062.139.139 0 01-.033.056.151.151 0 01-.056.033l-3.285 1.924z" fill="url(#paint40_linear_1_526)"/><path d="M331.567 304.76a.59.59 0 01-.548 0l-4.958-2.827c-.163 0-.237-.237 0-.311l3.301-1.909a.59.59 0 01.547 0l4.959 2.857a.162.162 0 01.104.157.168.168 0 01-.016.065.172.172 0 01-.088.088l-3.301 1.88z" fill="url(#paint41_linear_1_526)"/><path d="M338.42 308.712a.593.593 0 01-.548 0l-4.958-2.857c-.192 0-.237-.237 0-.311l3.286-1.909a.661.661 0 01.533 0l4.988 2.856c.162.119.207.252 0 .296l-3.301 1.925z" fill="url(#paint42_linear_1_526)"/><path d="M345.257 312.649a.565.565 0 01-.533 0l-4.958-2.96c-.178 0-.222-.237 0-.311l3.271-1.909a.867.867 0 01.547 0l4.988 2.856c.163 0 .207.267 0 .341l-3.315 1.983z" fill="url(#paint43_linear_1_526)"/><path d="M352.095 316.6a.812.812 0 01-.533 0l-4.973-2.826c-.163 0-.237-.237 0-.311l3.3-1.91a.716.716 0 01.548 0l4.958 2.887a.143.143 0 01.092.083.149.149 0 01-.003.124.129.129 0 01-.033.055.141.141 0 01-.056.034l-3.3 1.864z" fill="url(#paint44_linear_1_526)"/><path d="M358.934 320.537a.666.666 0 01-.533 0l-4.973-2.886c-.178 0-.222-.237 0-.296l3.315-1.895a.644.644 0 01.518 0l4.988 2.96c.163 0 .207.237 0 .296l-3.315 1.821z" fill="url(#paint45_linear_1_526)"/><path d="M362.869 324.031h-.548l-3.3 1.924m0 .133a.295.295 0 00.163.163l1.302.755-4.248 2.368v.133c0 .148 0 .118.163.178l3.33 1.938h.533l7.844-4.543m0-.134l-.162-.177.162.177z" fill="url(#paint46_linear_1_526)"/><path d="M286.025 320.375c7.697-8.126 20.899 23.237 28.788 37.549 2.96 5.225 5.106 3.759 6.097 2.561a2.388 2.388 0 00.444-1.806l-8.806-58.078v-.251a4.443 4.443 0 00-.577-1.229l-25.946 21.254z" fill="url(#paint47_linear_1_526)"/><path d="M280.267 354.12l-15.245-8.806c-1.228-.711-1.287-1.776-.162-2.368l19.329-9.443a4.77 4.77 0 013.967.237l13.72 7.933c1.155.666 1.303 1.658.311 2.25l-17.761 10.36a4.711 4.711 0 01-4.159-.163z" fill="url(#paint48_linear_1_526)"/><path d="M280.075 352.256l-15.23-8.881c-1.229-.695-1.303-1.761-.163-2.353l19.241-9.458a4.776 4.776 0 013.966.267l13.721 7.918c1.154.681 1.272 1.672.281 2.353l-17.761 10.361a4.725 4.725 0 01-4.055-.207z" fill="#C3CFE2"/><path d="M325.749 308.327l-.636-1.657-76.963-45.882-.711-.533a1.21 1.21 0 00-.399-.163l-12.418-7.4-.711-.518a2.407 2.407 0 00-2.368 0l-2.96 1.672 13.765 60.994a2.96 2.96 0 001.139 1.953l13.75 7.09a2.708 2.708 0 001.081 1.746s76.223 39.444 76.105 38.763l-8.674-56.065z" fill="url(#paint49_linear_1_526)"/><path d="M299.228 327.953c7.711-8.126 20.913 23.237 28.802 37.549 2.871 5.254 5.091 3.759 6.083 2.56a2.4 2.4 0 00.458-1.805l-8.761-58.093v-.311a4.03 4.03 0 00-.578-1.228l-26.004 21.328z" fill="url(#paint50_linear_1_526)"/><path d="M322.582 310.399a2.706 2.706 0 00-.873-1.48 4.004 4.004 0 00-.533-.474l-14.652-8.702-.207-.178-77.112-45.882c-.592-.326-.991-.118-.903.503l7.963 50.426c.062.235.146.463.252.681l1.213 7.681a2.97 2.97 0 001.347 1.865l14.357 8.496c.147.141.306.269.473.385l76.786 45.393c.607.385 1.066.148.962-.503l-9.073-58.211z" fill="url(#paint51_linear_1_526)"/><path d="M264.179 327.094l.844-13.128a3.772 3.772 0 014.129-3.36 4.14 4.14 0 011.746.666l13.869 7.401a5.062 5.062 0 012.738 4.736l-1.599 16.621a2.701 2.701 0 01-.547 1.406l-.933 10.819a2.957 2.957 0 01-3.256 2.368 3.1 3.1 0 01-1.332-.547l-14.401-8.333a4.057 4.057 0 01-2.146-3.73l.888-14.919z" fill="url(#paint52_linear_1_526)"/><path d="M368.953 195.976a108.502 108.502 0 01-17.923 26.123 97.857 97.857 0 00-8.259 10.242c-2.058 2.96-3.612 6.482-5.921 9.295-2.96 3.581-5.92 3.981-11.381 4.913a200.705 200.705 0 00-29.601 6.957c-7.993 2.619-4.559 15.289 3.492 12.639a212.323 212.323 0 0130.46-7.133 26.644 26.644 0 0015.778-7.549c5.668-6.127 9.058-13.898 14.712-20.129a121.161 121.161 0 0019.951-28.772c3.67-7.548-7.652-14.164-11.308-6.601v.015z" fill="#FFBA7C"/><path d="M348.618 204.781l-12.389 31.659c-1.48 9.842 20.544 13.765 22.468 5.831l9.295-31.421a10.143 10.143 0 00-6.602-11.93 10.167 10.167 0 00-12.772 5.861z" fill="#1C40F2"/><path d="M280.46 271.429a7.289 7.289 0 011.375-7.982 7.288 7.288 0 012.326-1.638l14.475-6.365a7.403 7.403 0 019.664 3.73 7.398 7.398 0 01-3.759 9.635l-14.475 6.379a7.294 7.294 0 01-9.606-3.759z" fill="url(#paint53_linear_1_526)"/><path d="M336.229 322.787a7.398 7.398 0 014.721-9.236l13.321-4.351a7.398 7.398 0 019.235 4.721 7.402 7.402 0 01-4.691 9.236l-13.232 4.351a7.4 7.4 0 01-9.25-4.721h-.104z" fill="#FFBA7C"/><path d="M403.528 265.301c1.48 29.602-25.738 41.842-51.092 45.409-8.303 1.184-4.721 13.823 3.508 12.639 16.532-2.368 33.227-7.651 45.571-19.24a49.111 49.111 0 0015.126-38.852c-.429-8.392-13.542-8.436-13.113 0v.044zm-124.592 2.235a7.397 7.397 0 013.744-9.65l14.46-6.35a7.401 7.401 0 019.65 3.73l7.519 6.143-25.723 9.901a7.398 7.398 0 01-9.65-3.774z" fill="#FFBA7C"/><path d="M353.487 200.386c-4.115 4.203-4.026 7.09-4.559 13.439a14.168 14.168 0 008.762 14.342l58.685 23.977s6.172-22.941-4.973-31.318c-6.024-4.544-15.319-11.841-22.63-17.406-10.731-8.362-25.798-12.758-35.285-3.034z" fill="#1C40F2"/><path d="M398.023 233.08l4.07 33.776c3.404 9.442 24.613 2.353 22.526-5.536l-6.704-32.073a10.143 10.143 0 00-11.456-7.4 10.165 10.165 0 00-8.436 11.233z" fill="#1C40F2"/><path d="M377.048 208.023l-3.049-26.508 15.333 7.4 2.369 21.639c.769 3.493-11.678 11.219-14.653-2.531z" fill="#FFBA7C"/><path d="M374.908 149.941l-5.009.283c-7.778.441-13.726 7.102-13.285 14.88l1.446 25.549c.44 7.778 7.102 13.726 14.88 13.286l5.009-.284c7.778-.44 13.726-7.102 13.285-14.88l-1.446-25.549c-.44-7.778-7.102-13.726-14.88-13.285z" fill="#FFBA7C"/><path d="M358.844 160.691a19.455 19.455 0 00-2.487 8.036c.222 7.682-3.389-2.471-2.708-7.696 1.228-9.591 9.117-10.183 14.8-12.64 16.089-7.074 32.71-1.835 34.53 18.782 1.821 20.618-.666 29.838-7.681 29.602-2.353 0-4.988 3.167-4.929-.237l-.991-3.671s-1.747-1.347-3.715-9.265c-.918-3.611 1.021-4.529-3.286-4.988-8.733-1.006-18.457-3.004-23.533-17.923z" fill="#0D1116"/><path d="M393.256 189.285a3.38 3.38 0 01-2.221 1.358 3.39 3.39 0 01-2.53-.618 3.461 3.461 0 01-1.154-1.48 8.101 8.101 0 011.48-8.451 3.376 3.376 0 014.677-.844c.557.379.981.922 1.213 1.554a8.04 8.04 0 01-1.465 8.481z" fill="#FFAA82"/><path d="M376.442 203.583c.237.681 7.978-1.894 7.741-2.738a20.143 20.143 0 01-7.208 6.498l-.533-3.76z" fill="#DB8C4B"/><path d="M395.37 187.237c2.419-4.191 2.424-8.718.01-10.112-2.414-1.394-6.332.874-8.752 5.065-2.419 4.191-2.424 8.718-.01 10.111 2.414 1.394 6.332-.873 8.752-5.064zm-33.476 20.579a3.049 3.049 0 100-6.098 3.049 3.049 0 000 6.098z" fill="#656593"/><path d="M362.293 204.737s16.088 10.716 29.601-19.344" stroke="#656593" stroke-width="1.6" stroke-miterlimit="10"/><path d="M394.884 182.507l-2.368-.163c0-.237 1.48-22.749-12.669-31.2-9.117-4.721-14.978-1.48-15.245-1.317h-.444a7.105 7.105 0 016.379-3.715 18.857 18.857 0 0110.464 2.96c6.379 3.819 10.76 10.819 12.729 20.233a52.094 52.094 0 011.154 13.202z" fill="#656593"/><path fill-rule="evenodd" clip-rule="evenodd" d="M362.958 181.826c.133.621-.459.355-1.48 0s-2.857-.962-2.812-1.835c.044-.874 2.25-.74 2.96-.178a3.46 3.46 0 011.332 2.013zm9.873 3.641c0 .873-1.584.251-2.576 0-.991-.252-1.865-.74-1.939-1.11-.074-.37 1.244-.74 2.117-.666.873.074 2.398.873 2.398 1.776z" fill="#2A180A"/><path fill-rule="evenodd" clip-rule="evenodd" d="M363.995 195.649c-2.368-1.287-2.886-3.034-2.501-3.552.385-.518.488 0 2.22.148.89.209 1.73.591 2.472 1.125 1.036 1.051 1.672 1.066 1.672 1.48a2.956 2.956 0 01-3.863.799z" fill="#EA826E"/><path fill-rule="evenodd" clip-rule="evenodd" d="M218.964 115.445l-2.961 1.732a44.402 44.402 0 01-7.844-13.572l2.96-1.747-.695-7.563-6.528-3.76v1.362a41.608 41.608 0 005.921 19.848 41.727 41.727 0 0014.253 15.023l1.184.68v-7.563l-6.29-4.44z" fill="#1C40F2"/><defs><linearGradient id="paint0_linear_1_526" x1="220.088" y1="106.402" x2="356" y2="26" gradientUnits="userSpaceOnUse"><stop stop-color="#4500E9"/><stop offset=".05" stop-color="#4008EA" stop-opacity=".87"/><stop offset=".14" stop-color="#3715EC" stop-opacity=".67"/><stop offset=".23" stop-color="#3021EE" stop-opacity=".49"/><stop offset=".33" stop-color="#2A2AEF" stop-opacity=".34"/><stop offset=".44" stop-color="#2532F0" stop-opacity=".21"/><stop offset=".55" stop-color="#2138F1" stop-opacity=".12"/><stop offset=".67" stop-color="#1E3DF2" stop-opacity=".05"/><stop offset=".81" stop-color="#1D3FF2" stop-opacity=".01"/><stop offset="1" stop-color="#1C40F2" stop-opacity="0"/></linearGradient><linearGradient id="paint1_linear_1_526" x1="383.799" y1="310.769" x2="280.89" y2="310.769" gradientUnits="userSpaceOnUse"><stop stop-color="#F5F7FA"/><stop offset="1" stop-color="#C3CFE2"/></linearGradient><linearGradient id="paint2_linear_1_526" x1="313.539" y1="291.898" x2="410.039" y2="342.886" gradientUnits="userSpaceOnUse"><stop stop-color="#F5F7FA"/><stop offset="1" stop-color="#C3CFE2"/></linearGradient><linearGradient id="paint3_linear_1_526" x1="311.216" y1="296.249" x2="407.716" y2="347.238" gradientUnits="userSpaceOnUse"><stop stop-color="#F5F7FA"/><stop offset="1" stop-color="#C3CFE2"/></linearGradient><linearGradient id="paint4_linear_1_526" x1="309.129" y1="300.231" x2="405.629" y2="351.219" gradientUnits="userSpaceOnUse"><stop stop-color="#F5F7FA"/><stop offset="1" stop-color="#C3CFE2"/></linearGradient><linearGradient id="paint5_linear_1_526" x1="307.116" y1="304.035" x2="403.616" y2="355.023" gradientUnits="userSpaceOnUse"><stop stop-color="#F5F7FA"/><stop offset="1" stop-color="#C3CFE2"/></linearGradient><linearGradient id="paint6_linear_1_526" x1="314.546" y1="289.93" x2="411.06" y2="340.933" gradientUnits="userSpaceOnUse"><stop stop-color="#F5F7FA"/><stop offset="1" stop-color="#C3CFE2"/></linearGradient><linearGradient id="paint7_linear_1_526" x1="317.137" y1="285.06" x2="413.652" y2="336.049" gradientUnits="userSpaceOnUse"><stop stop-color="#F5F7FA"/><stop offset="1" stop-color="#C3CFE2"/></linearGradient><linearGradient id="paint8_linear_1_526" x1="316.988" y1="285.357" x2="413.488" y2="336.345" gradientUnits="userSpaceOnUse"><stop stop-color="#F5F7FA"/><stop offset="1" stop-color="#C3CFE2"/></linearGradient><linearGradient id="paint9_linear_1_526" x1="316.869" y1="285.563" x2="413.369" y2="336.566" gradientUnits="userSpaceOnUse"><stop stop-color="#F5F7FA"/><stop offset="1" stop-color="#C3CFE2"/></linearGradient><linearGradient id="paint10_linear_1_526" x1="315.537" y1="288.08" x2="412.052" y2="339.068" gradientUnits="userSpaceOnUse"><stop stop-color="#F5F7FA"/><stop offset="1" stop-color="#C3CFE2"/></linearGradient><linearGradient id="paint11_linear_1_526" x1="315.478" y1="288.198" x2="411.963" y2="339.201" gradientUnits="userSpaceOnUse"><stop stop-color="#F5F7FA"/><stop offset="1" stop-color="#C3CFE2"/></linearGradient><linearGradient id="paint12_linear_1_526" x1="315.537" y1="288.094" x2="412.052" y2="339.083" gradientUnits="userSpaceOnUse"><stop stop-color="#F5F7FA"/><stop offset="1" stop-color="#C3CFE2"/></linearGradient><linearGradient id="paint13_linear_1_526" x1="306.998" y1="304.271" x2="403.498" y2="355.259" gradientUnits="userSpaceOnUse"><stop stop-color="#F5F7FA"/><stop offset="1" stop-color="#C3CFE2"/></linearGradient><linearGradient id="paint14_linear_1_526" x1="306.821" y1="304.568" x2="403.336" y2="355.556" gradientUnits="userSpaceOnUse"><stop stop-color="#F5F7FA"/><stop offset="1" stop-color="#C3CFE2"/></linearGradient><linearGradient id="paint15_linear_1_526" x1="306.717" y1="304.804" x2="403.202" y2="355.793" gradientUnits="userSpaceOnUse"><stop stop-color="#F5F7FA"/><stop offset="1" stop-color="#C3CFE2"/></linearGradient><linearGradient id="paint16_linear_1_526" x1="306.568" y1="305.056" x2="403.054" y2="356.044" gradientUnits="userSpaceOnUse"><stop stop-color="#F5F7FA"/><stop offset="1" stop-color="#C3CFE2"/></linearGradient><linearGradient id="paint17_linear_1_526" x1="306.42" y1="305.337" x2="402.92" y2="356.34" gradientUnits="userSpaceOnUse"><stop stop-color="#F5F7FA"/><stop offset="1" stop-color="#C3CFE2"/></linearGradient><linearGradient id="paint18_linear_1_526" x1="306.318" y1="305.574" x2="402.818" y2="356.562" gradientUnits="userSpaceOnUse"><stop stop-color="#F5F7FA"/><stop offset="1" stop-color="#C3CFE2"/></linearGradient><linearGradient id="paint19_linear_1_526" x1="306.065" y1="306.033" x2="402.551" y2="357.021" gradientUnits="userSpaceOnUse"><stop stop-color="#F5F7FA"/><stop offset="1" stop-color="#C3CFE2"/></linearGradient><linearGradient id="paint20_linear_1_526" x1="308.982" y1="300.498" x2="405.482" y2="351.486" gradientUnits="userSpaceOnUse"><stop stop-color="#F5F7FA"/><stop offset="1" stop-color="#C3CFE2"/></linearGradient><linearGradient id="paint21_linear_1_526" x1="308.863" y1="300.705" x2="405.363" y2="351.693" gradientUnits="userSpaceOnUse"><stop stop-color="#F5F7FA"/><stop offset="1" stop-color="#C3CFE2"/></linearGradient><linearGradient id="paint22_linear_1_526" x1="308.715" y1="301.015" x2="405.23" y2="352.004" gradientUnits="userSpaceOnUse"><stop stop-color="#F5F7FA"/><stop offset="1" stop-color="#C3CFE2"/></linearGradient><linearGradient id="paint23_linear_1_526" x1="308.581" y1="301.267" x2="405.067" y2="352.255" gradientUnits="userSpaceOnUse"><stop stop-color="#F5F7FA"/><stop offset="1" stop-color="#C3CFE2"/></linearGradient><linearGradient id="paint24_linear_1_526" x1="308.433" y1="301.548" x2="404.948" y2="352.551" gradientUnits="userSpaceOnUse"><stop stop-color="#F5F7FA"/><stop offset="1" stop-color="#C3CFE2"/></linearGradient><linearGradient id="paint25_linear_1_526" x1="308.314" y1="301.77" x2="404.83" y2="352.758" gradientUnits="userSpaceOnUse"><stop stop-color="#F5F7FA"/><stop offset="1" stop-color="#C3CFE2"/></linearGradient><linearGradient id="paint26_linear_1_526" x1="308.167" y1="302.036" x2="404.668" y2="353.039" gradientUnits="userSpaceOnUse"><stop stop-color="#F5F7FA"/><stop offset="1" stop-color="#C3CFE2"/></linearGradient><linearGradient id="paint27_linear_1_526" x1="311.083" y1="296.502" x2="407.583" y2="347.49" gradientUnits="userSpaceOnUse"><stop stop-color="#F5F7FA"/><stop offset="1" stop-color="#C3CFE2"/></linearGradient><linearGradient id="paint28_linear_1_526" x1="310.994" y1="296.693" x2="407.494" y2="347.682" gradientUnits="userSpaceOnUse"><stop stop-color="#F5F7FA"/><stop offset="1" stop-color="#C3CFE2"/></linearGradient><linearGradient id="paint29_linear_1_526" x1="310.847" y1="297.019" x2="407.332" y2="348.008" gradientUnits="userSpaceOnUse"><stop stop-color="#F5F7FA"/><stop offset="1" stop-color="#C3CFE2"/></linearGradient><linearGradient id="paint30_linear_1_526" x1="310.697" y1="297.242" x2="407.183" y2="348.23" gradientUnits="userSpaceOnUse"><stop stop-color="#F5F7FA"/><stop offset="1" stop-color="#C3CFE2"/></linearGradient><linearGradient id="paint31_linear_1_526" x1="310.565" y1="297.537" x2="407.065" y2="348.525" gradientUnits="userSpaceOnUse"><stop stop-color="#F5F7FA"/><stop offset="1" stop-color="#C3CFE2"/></linearGradient><linearGradient id="paint32_linear_1_526" x1="310.388" y1="297.803" x2="406.902" y2="348.806" gradientUnits="userSpaceOnUse"><stop stop-color="#F5F7FA"/><stop offset="1" stop-color="#C3CFE2"/></linearGradient><linearGradient id="paint33_linear_1_526" x1="310.253" y1="298.055" x2="406.753" y2="349.059" gradientUnits="userSpaceOnUse"><stop stop-color="#F5F7FA"/><stop offset="1" stop-color="#C3CFE2"/></linearGradient><linearGradient id="paint34_linear_1_526" x1="311.394" y1="295.924" x2="407.894" y2="346.927" gradientUnits="userSpaceOnUse"><stop stop-color="#F5F7FA"/><stop offset="1" stop-color="#C3CFE2"/></linearGradient><linearGradient id="paint35_linear_1_526" x1="312.178" y1="294.444" x2="408.664" y2="345.432" gradientUnits="userSpaceOnUse"><stop stop-color="#F5F7FA"/><stop offset="1" stop-color="#C3CFE2"/></linearGradient><linearGradient id="paint36_linear_1_526" x1="309.306" y1="299.876" x2="405.821" y2="350.864" gradientUnits="userSpaceOnUse"><stop stop-color="#F5F7FA"/><stop offset="1" stop-color="#C3CFE2"/></linearGradient><linearGradient id="paint37_linear_1_526" x1="307.265" y1="303.768" x2="403.75" y2="354.756" gradientUnits="userSpaceOnUse"><stop stop-color="#F5F7FA"/><stop offset="1" stop-color="#C3CFE2"/></linearGradient><linearGradient id="paint38_linear_1_526" x1="313.391" y1="292.194" x2="409.876" y2="343.183" gradientUnits="userSpaceOnUse"><stop stop-color="#F5F7FA"/><stop offset="1" stop-color="#C3CFE2"/></linearGradient><linearGradient id="paint39_linear_1_526" x1="313.23" y1="292.461" x2="409.73" y2="343.449" gradientUnits="userSpaceOnUse"><stop stop-color="#F5F7FA"/><stop offset="1" stop-color="#C3CFE2"/></linearGradient><linearGradient id="paint40_linear_1_526" x1="313.096" y1="292.712" x2="409.596" y2="343.715" gradientUnits="userSpaceOnUse"><stop stop-color="#F5F7FA"/><stop offset="1" stop-color="#C3CFE2"/></linearGradient><linearGradient id="paint41_linear_1_526" x1="312.948" y1="292.964" x2="409.448" y2="343.952" gradientUnits="userSpaceOnUse"><stop stop-color="#F5F7FA"/><stop offset="1" stop-color="#C3CFE2"/></linearGradient><linearGradient id="paint42_linear_1_526" x1="312.83" y1="293.245" x2="409.33" y2="344.204" gradientUnits="userSpaceOnUse"><stop stop-color="#F5F7FA"/><stop offset="1" stop-color="#C3CFE2"/></linearGradient><linearGradient id="paint43_linear_1_526" x1="312.71" y1="293.453" x2="409.196" y2="344.456" gradientUnits="userSpaceOnUse"><stop stop-color="#F5F7FA"/><stop offset="1" stop-color="#C3CFE2"/></linearGradient><linearGradient id="paint44_linear_1_526" x1="312.562" y1="293.733" x2="409.047" y2="344.722" gradientUnits="userSpaceOnUse"><stop stop-color="#F5F7FA"/><stop offset="1" stop-color="#C3CFE2"/></linearGradient><linearGradient id="paint45_linear_1_526" x1="312.4" y1="293.999" x2="408.915" y2="344.988" gradientUnits="userSpaceOnUse"><stop stop-color="#F5F7FA"/><stop offset="1" stop-color="#C3CFE2"/></linearGradient><linearGradient id="paint46_linear_1_526" x1="309.128" y1="300.217" x2="405.613" y2="351.219" gradientUnits="userSpaceOnUse"><stop stop-color="#F5F7FA"/><stop offset="1" stop-color="#C3CFE2"/></linearGradient><linearGradient id="paint47_linear_1_526" x1="277.64" y1="327.388" x2="306.544" y2="323.009" gradientUnits="userSpaceOnUse"><stop offset=".04" stop-color="#fff"/><stop offset=".32" stop-color="#FCFDFE"/><stop offset=".51" stop-color="#F3F7FB"/><stop offset=".67" stop-color="#E4EDF7"/><stop offset=".82" stop-color="#CEDEF0"/><stop offset=".96" stop-color="#B3CBE8"/><stop offset="1" stop-color="#A8C4E5"/></linearGradient><linearGradient id="paint48_linear_1_526" x1="302.838" y1="343.937" x2="264.06" y2="343.937" gradientUnits="userSpaceOnUse"><stop stop-color="#F5F7FA"/><stop offset="1" stop-color="#C3CFE2"/></linearGradient><linearGradient id="paint49_linear_1_526" x1="282.591" y1="261.912" x2="281.436" y2="309.674" gradientUnits="userSpaceOnUse"><stop stop-color="#F5F7FA"/><stop offset="1" stop-color="#C3CFE2"/></linearGradient><linearGradient id="paint50_linear_1_526" x1="290.705" y1="334.952" x2="319.595" y2="330.575" gradientUnits="userSpaceOnUse"><stop stop-color="#F5F7FA"/><stop offset="1" stop-color="#C3CFE2"/></linearGradient><linearGradient id="paint51_linear_1_526" x1="315.597" y1="291.676" x2="131.684" y2="393.49" gradientUnits="userSpaceOnUse"><stop stop-color="#F5F7FA"/><stop offset="1" stop-color="#C3CFE2"/></linearGradient><linearGradient id="paint52_linear_1_526" x1="310.52" y1="300.512" x2="237.345" y2="366.686" gradientUnits="userSpaceOnUse"><stop stop-color="#F5F7FA"/><stop offset="1" stop-color="#C3CFE2"/></linearGradient><linearGradient id="paint53_linear_1_526" x1="279.824" y1="265.302" x2="308.937" y2="265.302" gradientUnits="userSpaceOnUse"><stop stop-color="#F5F7FA"/><stop offset="1" stop-color="#C3CFE2"/></linearGradient></defs></svg>