<svg width="56" height="56" fill="none" xmlns="http://www.w3.org/2000/svg"><path d="M55.998 4.093L51.13 11.13l-2.412.804L34.593 26.06l.041 1.503-1.588.044-5.44 5.441-.775.773-1.547-1.546-3.106-3.107.773-.774 5.441-5.441.044-1.387 1.503-.16L44.064 7.28l.804-2.411L51.905 0l4.093 4.093z" fill="url(#paint0_linear_1_61)"/><path d="M55.766 43.98c-1.096-4.959-5.817-8.312-10.909-7.657L34.594 26.06l-1.547 1.546 10.658 10.657c.255.256.62.369.976.302 5.034-.953 9.571 3.19 9.105 8.239l-3.01-3.01a4.944 4.944 0 00-6.983 0 4.949 4.949 0 000 6.982l3.01 3.01c-5.06.468-9.19-4.082-8.238-9.105a1.095 1.095 0 00-.302-.976l-15.31-15.311a43324.537 43324.537 0 00-10.657-10.657 1.095 1.095 0 00-.977-.302c-5.032.954-9.571-3.19-9.105-8.238l3.01 3.01a4.947 4.947 0 006.983-.001 4.949 4.949 0 000-6.982l-3.01-3.01c5.054-.467 9.19 4.078 8.238 9.105-.067.355.046.72.302.976l10.657 10.658 1.546-1.547-10.263-10.263a9.875 9.875 0 00-2.812-8.248A9.875 9.875 0 006.655.54a1.095 1.095 0 00-.418 1.808L10.66 6.77a2.757 2.757 0 01.002 3.89 2.755 2.755 0 01-3.89 0L2.347 6.236a1.095 1.095 0 00-1.808.417 9.878 9.878 0 0010.603 13.023l8.662 8.662L1.608 46.633a5.484 5.484 0 000 7.76 5.484 5.484 0 007.76-.003l18.196-18.292 8.76 8.76a9.875 9.875 0 002.811 8.247 9.877 9.877 0 0010.21 2.355 1.095 1.095 0 00.418-1.808L45.34 49.23a2.757 2.757 0 01-.001-3.89 2.754 2.754 0 013.889 0l4.423 4.422a1.094 1.094 0 001.808-.416c.594-1.726.7-3.581.306-5.366zM17.529 33.73l1.598 1.598L6.264 48.189 4.7 46.626l12.828-12.897zM5.487 53.81c-.88 0-1.71-.343-2.332-.967a3.296 3.296 0 01.003-4.666v-.002l4.665 4.665c-.031.022-.863.97-2.336.97zm3.88-2.52L7.81 49.736l12.862-12.863 1.522 1.521L9.366 51.291zm14.37-14.447c-1.618-1.62-2.926-2.926-4.666-4.666l2.28-2.291 4.665 4.665-2.28 2.292z" fill="#001042"/><defs><linearGradient id="paint0_linear_1_61" x1="22.178" y1="2.475" x2="58.008" y2="5.896" gradientUnits="userSpaceOnUse"><stop stop-color="#0082F8"/><stop offset="1" stop-color="#1C40F2"/></linearGradient></defs></svg>