<svg width="56" height="56" fill="none" xmlns="http://www.w3.org/2000/svg"><path d="M28 45.5c9.665 0 17.5-7.835 17.5-17.5S37.665 10.5 28 10.5 10.5 18.335 10.5 28 18.335 45.5 28 45.5z" fill="url(#paint0_linear_1_632)"/><path d="M36.203 19.25H19.797c-.604 0-1.094.49-1.094 1.094v15.312c0 .604.49 1.094 1.094 1.094h16.406c.604 0 1.094-.49 1.094-1.094V20.344c0-.604-.49-1.094-1.094-1.094zm-6.562 2.188v3.193l-.958-.766c-.4-.32-.967-.32-1.366 0l-.958.766v-3.194h3.282zm-5.47 0v5.468a1.094 1.094 0 001.778.854L28 26.12l2.051 1.64a1.094 1.094 0 001.777-.854v-5.468h3.281v8.75H20.891v-8.75h3.28zm-3.28 13.125v-2.188h14.218v2.188H20.891z" fill="#fff"/><path d="M54.906 26.906h-2.869C51.485 14.48 41.52 4.515 29.094 3.963v-2.87a1.094 1.094 0 00-2.188 0v2.87C14.48 4.515 4.515 14.48 3.963 26.906h-2.87a1.094 1.094 0 000 2.188h2.87C4.515 41.52 14.48 51.485 26.906 52.037v2.87a1.094 1.094 0 002.188 0v-2.87c12.427-.552 22.391-10.518 22.943-22.943h2.87a1.094 1.094 0 000-2.188zM28 49.875C15.938 49.875 6.125 40.062 6.125 28S15.938 6.125 28 6.125 49.875 15.938 49.875 28 40.062 49.875 28 49.875z" fill="#001042"/><defs><linearGradient id="paint0_linear_1_632" x1="10.5" y1="13.061" x2="47.581" y2="16.601" gradientUnits="userSpaceOnUse"><stop stop-color="#0082F8"/><stop offset="1" stop-color="#1C40F2"/></linearGradient></defs></svg>