<svg width="60" height="56" fill="none" xmlns="http://www.w3.org/2000/svg"><path d="M17.645 16.468h24.71v23.063h-24.71V16.468z" fill="url(#paint0_linear_1_51)"/><path d="M58.828 41.183H53.79l-.91-2.547c-.159-.446-.607-.748-1.111-.748h-3.535v-2.205h8.242c.647 0 1.172-.49 1.172-1.094 0-.604-.525-1.093-1.172-1.093h-8.242V31.29h4.712c.647 0 1.172-.49 1.172-1.094 0-.604-.525-1.093-1.172-1.093h-4.712v-2.206h4.712c.647 0 1.172-.49 1.172-1.093 0-.604-.525-1.094-1.172-1.094h-4.712v-2.206h8.242c.647 0 1.172-.49 1.172-1.093 0-.605-.525-1.094-1.172-1.094h-8.242V18.11h3.535c.504 0 .952-.3 1.112-.747l.91-2.547h5.038c.647 0 1.172-.49 1.172-1.094 0-.604-.525-1.094-1.172-1.094h-5.883c-.505 0-.952.302-1.112.748l-.91 2.547h-2.69v-3.848c0-.604-.524-1.094-1.172-1.094h-4.123v-2.51l2.729-.85c.478-.148.801-.566.801-1.037v-5.49C46.468.49 45.944 0 45.296 0c-.647 0-1.171.49-1.171 1.094v4.703l-2.73.849c-.478.148-.8.566-.8 1.037v3.3h-2.363V3.29c0-.604-.525-1.094-1.172-1.094-.647 0-1.172.49-1.172 1.094v7.692h-2.363V6.585c0-.604-.525-1.094-1.172-1.094-.647 0-1.172.49-1.172 1.094v4.397h-2.363V6.585c0-.604-.524-1.094-1.172-1.094-.647 0-1.171.49-1.171 1.094v4.397h-2.363V3.29c0-.604-.525-1.094-1.172-1.094-.647 0-1.172.49-1.172 1.094v7.692h-2.363V7.683c0-.47-.323-.889-.801-1.038l-2.729-.849V1.094C15.875.49 15.35 0 14.703 0c-.647 0-1.172.49-1.172 1.094v5.49c0 .472.323.89.802 1.038l2.728.85v2.51h-4.123c-.647 0-1.172.49-1.172 1.094v3.848h-2.69l-.91-2.547c-.159-.446-.606-.748-1.11-.748H1.171C.525 12.63 0 13.12 0 13.723c0 .604.525 1.094 1.172 1.094H6.21l.91 2.547c.159.446.607.748 1.11.748h3.536v2.205H3.525c-.647 0-1.172.49-1.172 1.094 0 .604.525 1.094 1.172 1.094h8.242v2.205H7.055c-.647 0-1.172.49-1.172 1.094 0 .604.525 1.094 1.172 1.094h4.712v2.205H7.055c-.647 0-1.172.49-1.172 1.094 0 .604.525 1.093 1.172 1.093h4.712v2.206H3.525c-.647 0-1.172.49-1.172 1.093 0 .605.525 1.094 1.172 1.094h8.242v2.206H8.232c-.505 0-.952.3-1.112.747l-.91 2.547H1.172c-.647 0-1.172.49-1.172 1.094 0 .604.525 1.094 1.172 1.094h5.883c.505 0 .952-.301 1.112-.748l.91-2.547h2.69v3.848c0 .604.524 1.094 1.172 1.094h4.123v2.51l-2.729.85c-.479.149-.801.567-.801 1.038v5.49c0 .604.524 1.094 1.171 1.094.648 0 1.172-.49 1.172-1.094v-4.703l2.73-.849c.478-.148.8-.566.8-1.037v-3.3h2.363v7.693c0 .604.525 1.093 1.172 1.093.647 0 1.172-.49 1.172-1.093v-7.692h2.363v4.397c0 .604.525 1.094 1.172 1.094.647 0 1.172-.49 1.172-1.094v-4.397h2.363v4.397c0 .604.524 1.094 1.171 1.094.648 0 1.172-.49 1.172-1.094v-4.397h2.363v7.692c0 .604.525 1.093 1.172 1.093.647 0 1.172-.49 1.172-1.093v-7.692h2.363v3.299c0 .47.323.889.801 1.038l2.729.849v4.702c0 .604.525 1.094 1.172 1.094.647 0 1.172-.49 1.172-1.094v-5.49c0-.472-.323-.89-.802-1.038l-2.728-.85v-2.51h4.123c.647 0 1.172-.49 1.172-1.094v-3.848h2.69l.91 2.547c.159.446.607.748 1.111.748h5.883c.647 0 1.172-.49 1.172-1.094 0-.604-.525-1.094-1.172-1.094zM45.89 42.83H14.11V13.17h31.78v29.66z" fill="#001042"/><path d="M37.648 19.768H22.352c-.648 0-1.172.49-1.172 1.094v14.277c0 .604.524 1.093 1.172 1.093h15.296c.647 0 1.172-.49 1.172-1.093V20.861c0-.604-.525-1.094-1.172-1.094zm-1.172 14.277H23.523v-12.09h12.953v12.09z" fill="#fff"/><defs><linearGradient id="paint0_linear_1_51" x1="17.645" y1="18.156" x2="43.788" y2="20.83" gradientUnits="userSpaceOnUse"><stop stop-color="#0082F8"/><stop offset="1" stop-color="#1C40F2"/></linearGradient></defs></svg>