<svg width="1919" height="1021" fill="none" xmlns="http://www.w3.org/2000/svg"><path d="M1919 1021C1156 521.493 285.167 813.282-2 1021V246.659c813.5-446.044 1595.67-187.121 1921 0V1021z" fill="#1C1E25"/><mask id="a" style="mask-type:alpha" maskUnits="userSpaceOnUse" x="-2" y="0" width="1921" height="1021"><path d="M1919 1021C1156 521.493 285.167 813.282-2 1021V246.659c813.5-446.044 1595.67-187.121 1921 0V1021z" fill="#1C1E25"/></mask><g mask="url(#a)"><g opacity=".15" filter="url(#filter0_f_112_6)"><circle r="242.5" transform="matrix(1 0 0 -1 1618.5 810.5)" fill="url(#paint0_linear_112_6)"/></g><g opacity=".15" filter="url(#filter1_f_112_6)"><circle r="242.5" transform="matrix(1 0 0 -1 262.5 281.5)" fill="url(#paint1_linear_112_6)"/></g></g><defs><linearGradient id="paint0_linear_112_6" x1="370.09" y1="147.232" x2="116.847" y2="159.282" gradientUnits="userSpaceOnUse"><stop stop-color="#7B61FF"/><stop offset="1" stop-color="#AA82FF"/></linearGradient><linearGradient id="paint1_linear_112_6" x1="370.09" y1="147.232" x2="116.847" y2="159.282" gradientUnits="userSpaceOnUse"><stop stop-color="#7B61FF"/><stop offset="1" stop-color="#AA82FF"/></linearGradient><filter id="filter0_f_112_6" x="1076" y="268" width="1085" height="1085" filterUnits="userSpaceOnUse" color-interpolation-filters="sRGB"><feFlood flood-opacity="0" result="BackgroundImageFix"/><feBlend in="SourceGraphic" in2="BackgroundImageFix" result="shape"/><feGaussianBlur stdDeviation="150" result="effect1_foregroundBlur_112_6"/></filter><filter id="filter1_f_112_6" x="-280" y="-261" width="1085" height="1085" filterUnits="userSpaceOnUse" color-interpolation-filters="sRGB"><feFlood flood-opacity="0" result="BackgroundImageFix"/><feBlend in="SourceGraphic" in2="BackgroundImageFix" result="shape"/><feGaussianBlur stdDeviation="150" result="effect1_foregroundBlur_112_6"/></filter></defs></svg>